<svg width="190" height="121" viewBox="0 0 190 121" fill="none" xmlns="http://www.w3.org/2000/svg">
<g clip-path="url(#clip0_729_117)">
<path d="M107.625 70.3653C107.65 69.8619 107.675 69.3586 107.675 68.8553C107.675 50.358 107.675 31.8607 107.7 13.3634C107.7 12.1302 107.4 11.8282 106.175 11.8534C102.875 11.9541 99.6 11.8534 96.3 11.9037C95.5 11.9037 95.125 11.7779 95.125 10.8468C95.175 7.57513 95.175 4.3035 95.125 1.03187C95.1 0.151044 95.45 0.0252125 96.2 0.0252125C113.2 0.0503789 130.2 -0.0502867 147.2 0.125878C155.55 0.226544 163.825 1.28353 171.6 4.6055C182.075 9.08511 187.8 17.1887 189.4 28.4129C190.35 35.082 190.2 41.7008 188.5 48.244C185.825 58.3609 179.3 64.879 169.65 68.4526C163.775 70.6169 157.675 71.5733 151.475 72.0011C142.725 72.5799 133.975 72.2024 125.25 72.2779C124.15 72.2779 123.85 72.5548 123.85 73.6621C123.9 85.0373 123.9 96.3873 123.85 107.763C123.85 108.845 124.175 109.096 125.2 109.071C128.575 109.021 131.95 109.071 135.325 109.021C136.2 108.996 136.45 109.273 136.45 110.153C136.4 113.375 136.4 116.621 136.45 119.842C136.475 120.849 136.075 121.025 135.225 121.025C122.175 121 109.15 121 96.1 121.025C95.2 121.025 94.85 120.849 94.875 119.868C94.95 116.646 94.925 113.4 94.875 110.179C94.875 109.323 95.1 109.021 96 109.046C99.25 109.071 102.5 109.021 105.75 109.021C107.7 109.172 107.7 109.172 107.7 107.209C107.7 97.8721 107.7 88.5354 107.7 79.1987C107.675 76.229 107.625 73.2846 107.625 70.3653ZM123.875 36.2648C123.875 43.8902 123.9 51.5157 123.85 59.1662C123.85 60.0974 124 60.4749 125.05 60.4497C131.375 60.3994 137.7 60.4749 144.05 60.3994C148.2 60.3742 152.35 60.0722 156.45 59.1411C164.125 57.3794 169.55 53.0508 171.575 45.1737C173.15 39.0583 173.125 32.8925 171.55 26.7771C169.925 20.5358 166.05 16.2827 160 14.0932C155.225 12.3567 150.25 12.0044 145.25 11.9037C138.55 11.7779 131.85 11.9037 125.125 11.8534C124.125 11.8534 123.875 12.1302 123.875 13.1117C123.9 20.8378 123.875 28.5639 123.875 36.2648Z" fill="#96C950"/>
<path d="M108.125 70.3652C108.15 73.2845 108.175 76.229 108.175 79.1483C108.175 88.485 108.175 97.8217 108.175 107.158C108.175 109.121 108.175 109.121 106.225 108.97C103.725 102.805 101.225 96.6389 98.7249 90.4983C96.3999 84.7604 94.0249 79.0476 91.7249 73.3097C91.4249 72.5547 91.0999 72.2275 90.2249 72.2275C75.4249 72.2527 60.6499 72.2527 45.8499 72.2275C44.9999 72.2275 44.6499 72.5295 44.3249 73.2845C39.4499 84.9365 34.5499 96.5634 29.6749 108.215C29.1249 109.549 29.1249 109.549 30.5999 109.549C33.9249 109.549 37.2749 109.574 40.5999 109.524C41.4749 109.499 41.7249 109.776 41.7249 110.657C41.6749 113.727 41.6749 116.772 41.7249 119.842C41.7249 120.673 41.5749 121 40.6499 121C27.4749 120.975 14.3249 120.975 1.14987 121C0.299867 121 -0.0251334 120.799 -0.000133425 119.867C0.0498666 116.646 0.0498666 113.4 -0.000133425 110.178C-0.0251334 109.197 0.324867 108.996 1.22487 109.021C4.89987 109.071 8.54987 109.021 12.2249 109.071C13.0249 109.071 13.3749 108.819 13.6749 108.09C27.1499 76.1535 40.6499 44.2425 54.1249 12.3063C55.7249 8.53139 57.3249 4.75643 58.8999 0.981469C59.1999 0.251644 59.5749 0.0251465 60.3749 0.0251465C66.0749 0.0503129 71.7999 0.0754793 77.4999 0.0251465C78.4499 0.0251465 78.8499 0.35231 79.1999 1.20797C88.6749 23.9835 98.1749 46.734 107.7 69.4844C107.8 69.7864 107.975 70.0632 108.125 70.3652ZM86.3499 60.349C80.2999 45.5511 74.2999 30.854 68.1999 15.9303C67.9749 16.4085 67.8749 16.5846 67.7999 16.7608C61.9249 30.9295 56.0499 45.0981 50.1499 59.2668C49.7249 60.2986 49.9999 60.4245 50.9749 60.4245C62.3749 60.3993 73.7999 60.3993 85.1999 60.3993C85.5499 60.3993 85.8499 60.3741 86.3499 60.349Z" fill="#28ABE2"/>
</g>
<defs>
<clipPath id="clip0_729_117">
<rect width="190" height="121" fill="white"/>
</clipPath>
</defs>
</svg>
